{
  "accessors": [
    {
      "bufferView": 2,
      "componentType": 5126,
      "count": 1130,
      "max": [
        35.139549255371094,
        15.100549697875977,
        57.50914764404297
      ],
      "min": [
        -7.826300144195557,
        -10.660407066345215,
        12.920820236206055
      ],
      "type": "VEC3"
    },
    {
      "bufferView": 2,
      "byteOffset": 13560,
      "componentType": 5126,
      "count": 1130,
      "max": [
        1.0,
        1.0,
        1.0
      ],
      "min": [
        -1.0,
        -1.0,
        -1.0
      ],
      "type": "VEC3"
    },
    {
      "bufferView": 3,
      "componentType": 5126,
      "count": 1130,
      "max": [
        1.0,
        0.9999990463256836,
        0.9986280202865601,
        1.0
      ],
      "min": [
        -0.9999993443489075,
        -1.0,
        -0.9988582730293274,
        1.0
      ],
      "type": "VEC4"
    },
    {
      "bufferView": 1,
      "componentType": 5126,
      "count": 1130,
      "max": [
        0.9958840012550354,
        0.9310150146484375
      ],
      "min": [
        0.01946300081908703,
        0.013500000350177288
      ],
      "type": "VEC2"
    },
    {
      "bufferView": 0,
      "componentType": 5125,
      "count": 3012,
      "type": "SCALAR"
    },
    {
      "bufferView": 2,
      "byteOffset": 27120,
      "componentType": 5126,
      "count": 841,
      "max": [
        48.48219299316406,
        62.053016662597656,
        95.88951110839844
      ],
      "min": [
        -54.96400451660156,
        -20.745195388793945,
        -7.910221099853516
      ],
      "type": "VEC3"
    },
    {
      "bufferView": 2,
      "byteOffset": 37212,
      "componentType": 5126,
      "count": 841,
      "max": [
        1.0,
        1.0,
        1.0
      ],
      "min": [
        -1.0,
        -1.0,
        -1.0
      ],
      "type": "VEC3"
    },
    {
      "bufferView": 3,
      "byteOffset": 18080,
      "componentType": 5126,
      "count": 841,
      "max": [
        1.0,
        0.9569621682167053,
        0.9999983906745911,
        1.0
      ],
      "min": [
        -0.999999463558197,
        -0.94367516040802,
        -0.9999983310699463,
        -1.0
      ],
      "type": "VEC4"
    },
    {
      "bufferView": 1,
      "byteOffset": 9040,
      "componentType": 5126,
      "count": 841,
      "max": [
        0.9994999766349792,
        0.9897469878196716
      ],
      "min": [
        0.004794999957084656,
        0.0005000000237487257
      ],
      "type": "VEC2"
    },
    {
      "bufferView": 0,
      "byteOffset": 12048,
      "componentType": 5125,
      "count": 4056,
      "type": "SCALAR"
    },
    {
      "bufferView": 2,
      "byteOffset": 47304,
      "componentType": 5126,
      "count": 6142,
      "max": [
        76.5773696899414,
        87.06866455078125,
        58.52077865600586
      ],
      "min": [
        -76.57817077636719,
        -46.8486328125,
        -161.8677215576172
      ],
      "type": "VEC3"
    },
    {
      "bufferView": 2,
      "byteOffset": 121008,
      "componentType": 5126,
      "count": 6142,
      "max": [
        0.9999709725379944,
        0.9997575879096985,
        0.999991238117218
      ],
      "min": [
        -0.9999674558639526,
        -0.999991238117218,
        -1.0
      ],
      "type": "VEC3"
    },
    {
      "bufferView": 3,
      "byteOffset": 31536,
      "componentType": 5126,
      "count": 6142,
      "max": [
        1.0,
        0.999596118927002,
        0.9951438307762146,
        1.0
      ],
      "min": [
        -0.9999997615814209,
        -0.9999961853027344,
        -0.9980425834655762,
        -1.0
      ],
      "type": "VEC4"
    },
    {
      "bufferView": 1,
      "byteOffset": 15768,
      "componentType": 5126,
      "count": 6142,
      "max": [
        0.9860720038414001,
        0.9922999739646912
      ],
      "min": [
        0.01829100027680397,
        0.017107000574469566
      ],
      "type": "VEC2"
    },
    {
      "bufferView": 0,
      "byteOffset": 28272,
      "componentType": 5125,
      "count": 31644,
      "type": "SCALAR"
    }
  ],
  "asset": {
    "extras": {
      "author": "MauModel (https://sketchfab.com/MauModel)",
      "license": "CC-BY-4.0 (http://creativecommons.org/licenses/by/4.0/)",
      "source": "https://sketchfab.com/3d-models/flamethrower-soldier-kitty-0fba3d1cacd04555b9776b92df136328",
      "title": "Flamethrower Soldier Kitty"
    },
    "generator": "Sketchfab-12.75.0",
    "version": "2.0"
  },
  "bufferViews": [
    {
      "buffer": 0,
      "byteLength": 154848,
      "name": "floatBufferViews",
      "target": 34963
    },
    {
      "buffer": 0,
      "byteLength": 64904,
      "byteOffset": 154848,
      "byteStride": 8,
      "name": "floatBufferViews",
      "target": 34962
    },
    {
      "buffer": 0,
      "byteLength": 194712,
      "byteOffset": 219752,
      "byteStride": 12,
      "name": "floatBufferViews",
      "target": 34962
    },
    {
      "buffer": 0,
      "byteLength": 129808,
      "byteOffset": 414464,
      "byteStride": 16,
      "name": "floatBufferViews",
      "target": 34962
    }
  ],
  "buffers": [
    {
      "byteLength": 544272,
      "uri": "scene.bin"
    }
  ],
  "images": [
    {
      "uri": "textures/material_baseColor.jpeg"
    },
    {
      "uri": "textures/material_metallicRoughness.png"
    },
    {
      "uri": "textures/material_emissive.jpeg"
    },
    {
      "uri": "textures/material_normal.png"
    },
    {
      "uri": "textures/helmet_baseColor.jpeg"
    },
    {
      "uri": "textures/helmet_metallicRoughness.png"
    },
    {
      "uri": "textures/helmet_normal.png"
    },
    {
      "uri": "textures/GasCanister_baseColor.jpeg"
    },
    {
      "uri": "textures/GasCanister_metallicRoughness.png"
    },
    {
      "uri": "textures/GasCanister_normal.png"
    }
  ],
  "materials": [
    {
      "doubleSided": true,
      "emissiveFactor": [
        1.0,
        1.0,
        1.0
      ],
      "emissiveTexture": {
        "index": 2
      },
      "name": "material",
      "normalTexture": {
        "index": 3
      },
      "pbrMetallicRoughness": {
        "baseColorTexture": {
          "index": 0
        },
        "metallicRoughnessTexture": {
          "index": 1
        }
      }
    },
    {
      "doubleSided": true,
      "name": "helmet",
      "normalTexture": {
        "index": 6
      },
      "pbrMetallicRoughness": {
        "baseColorTexture": {
          "index": 4
        },
        "metallicRoughnessTexture": {
          "index": 5
        }
      }
    },
    {
      "doubleSided": true,
      "name": "GasCanister",
      "normalTexture": {
        "index": 9
      },
      "pbrMetallicRoughness": {
        "baseColorTexture": {
          "index": 7
        },
        "metallicRoughnessTexture": {
          "index": 8
        }
      }
    }
  ],
  "meshes": [
    {
      "name": "defaultMaterial",
      "primitives": [
        {
          "attributes": {
            "NORMAL": 1,
            "POSITION": 0,
            "TANGENT": 2,
            "TEXCOORD_0": 3
          },
          "indices": 4,
          "material": 2,
          "mode": 4
        }
      ]
    },
    {
      "name": "defaultMaterial",
      "primitives": [
        {
          "attributes": {
            "NORMAL": 6,
            "POSITION": 5,
            "TANGENT": 7,
            "TEXCOORD_0": 8
          },
          "indices": 9,
          "material": 1,
          "mode": 4
        }
      ]
    },
    {
      "name": "defaultMaterial",
      "primitives": [
        {
          "attributes": {
            "NORMAL": 11,
            "POSITION": 10,
            "TANGENT": 12,
            "TEXCOORD_0": 13
          },
          "indices": 14,
          "material": 0,
          "mode": 4
        }
      ]
    }
  ],
  "nodes": [
    {
      "children": [
        1
      ],
      "matrix": [
        1.0,
        0.0,
        0.0,
        0.0,
        0.0,
        2.220446049250313e-16,
        -1.0,
        0.0,
        0.0,
        1.0,
        2.220446049250313e-16,
        0.0,
        0.0,
        0.0,
        0.0,
        1.0
      ],
      "name": "Sketchfab_model"
    },
    {
      "children": [
        2,
        4,
        6
      ],
      "matrix": [
        1.0,
        0.0,
        0.0,
        0.0,
        0.0,
        -4.371139006309477e-08,
        0.999999999999999,
        0.0,
        0.0,
        -0.999999999999999,
        -4.371139006309477e-08,
        0.0,
        0.0,
        0.0,
        0.0,
        1.0
      ],
      "name": "Collada visual scene group"
    },
    {
      "children": [
        3
      ],
      "matrix": [
        0.965926,
        0.0,
        0.258819,
        0.0,
        0.258819,
        0.0,
        -0.965926,
        0.0,
        0.0,
        1.0,
        0.0,
        0.0,
        -13.809442,
        73.433662,
        -30.747185,
        1.0
      ],
      "name": "Flamethrower"
    },
    {
      "mesh": 0,
      "name": "defaultMaterial"
    },
    {
      "children": [
        5
      ],
      "matrix": [
        0.0,
        0.0,
        -1.0,
        0.0,
        0.0,
        1.0,
        0.0,
        0.0,
        1.0,
        0.0,
        0.0,
        0.0,
        -44.29829,
        146.616638,
        -1.495804,
        1.0
      ],
      "name": "StrapLong"
    },
    {
      "mesh": 1,
      "name": "defaultMaterial"
    },
    {
      "children": [
        7
      ],
      "matrix": [
        1.0,
        0.0,
        0.0,
        0.0,
        0.0,
        0.0,
        -1.0,
        0.0,
        0.0,
        1.0,
        0.0,
        0.0,
        0.0,
        163.594788,
        0.0,
        1.0
      ],
      "name": "CATopo"
    },
    {
      "mesh": 2,
      "name": "defaultMaterial"
    }
  ],
  "samplers": [
    {
      "magFilter": 9729,
      "minFilter": 9987,
      "wrapS": 10497,
      "wrapT": 10497
    }
  ],
  "scene": 0,
  "scenes": [
    {
      "name": "Sketchfab_Scene",
      "nodes": [
        0
      ]
    }
  ],
  "textures": [
    {
      "sampler": 0,
      "source": 0
    },
    {
      "sampler": 0,
      "source": 1
    },
    {
      "sampler": 0,
      "source": 2
    },
    {
      "sampler": 0,
      "source": 3
    },
    {
      "sampler": 0,
      "source": 4
    },
    {
      "sampler": 0,
      "source": 5
    },
    {
      "sampler": 0,
      "source": 6
    },
    {
      "sampler": 0,
      "source": 7
    },
    {
      "sampler": 0,
      "source": 8
    },
    {
      "sampler": 0,
      "source": 9
    }
  ]
}
